{
    "asset": {
        "generator": "Khronos glTF Blender I/O v1.8.19",
        "version": "2.0"
    },
    "extensionsUsed": ["KHR_materials_unlit"],
    "scene": 0,
    "scenes": [
        {
            "name": "Scene",
            "nodes": [0]
        }
    ],
    "nodes": [
        {
            "mesh": 0,
            "name": "Sphere",
            "rotation": [
                0.010038907639682293, 0.4103817939758301,
                0.00027994540869258344, 0.9118584990501404
            ],
            "scale": [
                1.3168147802352905, 1.3027236461639404, 1.3168150186538696
            ]
        }
    ],
    "materials": [
        {
            "alphaMode": "BLEND",
            "doubleSided": true,
            "extensions": {
                "KHR_materials_unlit": {}
            },
            "name": "Earth_Glossiness_6K 2.001",
            "pbrMetallicRoughness": {
                "baseColorTexture": {
                    "index": 0
                },
                "metallicFactor": 0,
                "roughnessFactor": 0.9
            }
        }
    ],
    "meshes": [
        {
            "name": "Sphere",
            "primitives": [
                {
                    "attributes": {
                        "POSITION": 0,
                        "NORMAL": 1,
                        "TEXCOORD_0": 2
                    },
                    "indices": 3,
                    "material": 0
                }
            ]
        }
    ],
    "textures": [
        {
            "sampler": 0,
            "source": 0
        }
    ],
    "images": [
        {
            "mimeType": "image/jpeg",
            "name": "Earth_Diffuse_6K",
            "uri": "Earth_Diffuse_6K.jpg"
        }
    ],
    "accessors": [
        {
            "bufferView": 0,
            "componentType": 5126,
            "count": 559,
            "max": [0.9999997019767761, 1, 0.9999994039535522],
            "min": [-0.9999990463256836, -1, -0.9999987483024597],
            "type": "VEC3"
        },
        {
            "bufferView": 1,
            "componentType": 5126,
            "count": 559,
            "type": "VEC3"
        },
        {
            "bufferView": 2,
            "componentType": 5126,
            "count": 559,
            "type": "VEC2"
        },
        {
            "bufferView": 3,
            "componentType": 5123,
            "count": 2880,
            "type": "SCALAR"
        }
    ],
    "bufferViews": [
        {
            "buffer": 0,
            "byteLength": 6708,
            "byteOffset": 0
        },
        {
            "buffer": 0,
            "byteLength": 6708,
            "byteOffset": 6708
        },
        {
            "buffer": 0,
            "byteLength": 4472,
            "byteOffset": 13416
        },
        {
            "buffer": 0,
            "byteLength": 5760,
            "byteOffset": 17888
        }
    ],
    "samplers": [
        {
            "magFilter": 9729,
            "minFilter": 9987,
            "wrapS": 33071,
            "wrapT": 33071
        }
    ],
    "buffers": [
        {
            "byteLength": 23648,
            "uri": "globe.bin"
        }
    ]
}
