<svg width="282" height="81" fill="none" xmlns="http://www.w3.org/2000/svg"><path d="M36.108 45.18H4.11V3h31.998v11.13H16.884v4.173h18.78v11.13h-18.78v4.616h19.224v11.13Zm45.953 0h-15.05l-7.714-12.9-7.715 12.9h-15.05l14.101-21.627L37.48 3h14.987l6.83 12.015L66 3.001h15.113L67.96 23.49l14.102 21.69Zm14.33 0H83.617V3h22.512c4.764 0 8.474 1.391 11.129 4.174 2.699 2.74 4.048 6.176 4.048 10.307 0 4.09-1.349 7.525-4.048 10.308-2.655 2.74-6.365 4.11-11.129 4.11H96.39v13.28Zm8.094-24.41c1.138 0 2.065-.273 2.782-.822.717-.59 1.075-1.412 1.075-2.466 0-1.096-.358-1.918-1.075-2.466-.717-.59-1.644-.885-2.782-.885h-8.094v6.64h8.094Zm49.078 24.41H124.79V3h12.774v31.05h15.999V45.18Zm40.446-5.312c-4.384 4.047-9.865 6.07-16.442 6.07-6.576 0-12.078-2.023-16.504-6.07-4.385-4.09-6.577-9.338-6.577-15.746 0-6.408 2.192-11.635 6.577-15.683 4.426-4.089 9.928-6.133 16.504-6.133 6.577 0 12.058 2.044 16.442 6.133 4.426 4.048 6.64 9.275 6.64 15.683 0 6.408-2.214 11.657-6.64 15.746Zm-23.777-8.22c1.897 2.023 4.342 3.034 7.335 3.034 2.994 0 5.418-1.011 7.273-3.035 1.897-2.023 2.845-4.532 2.845-7.525 0-2.993-.948-5.502-2.845-7.525-1.855-2.024-4.279-3.035-7.273-3.035-2.993 0-5.438 1.011-7.335 3.035-1.855 2.023-2.782 4.532-2.782 7.525 0 2.993.927 5.502 2.782 7.525Zm72.002 13.532H227.69l-5.818-13.28h-4.616v13.28h-12.774V3h22.513c4.763 0 8.473 1.391 11.129 4.174 2.698 2.74 4.047 6.176 4.047 10.307 0 3.288-.759 5.987-2.276 8.095-1.476 2.107-3.246 3.667-5.312 4.679l7.651 14.924Zm-17.2-24.41c1.181 0 2.171-.273 2.972-.822.801-.59 1.202-1.433 1.202-2.529 0-1.054-.401-1.855-1.202-2.403-.801-.59-1.791-.885-2.972-.885h-7.778v6.64h7.778Zm53.608 24.41h-31.998V3h31.998v11.13h-19.224v4.173h18.781v11.13h-18.781v4.616h19.224v11.13ZM21.678 77.777h-8.04V58.235H6.515V51.23h22.249v7.005h-7.085v19.542Zm35.094 0h-8.04V67.628H39.22v10.15h-8.04V51.23h8.04v9.393h9.512V51.23h8.04v26.547Zm24 0h-20.14V51.23h20.14v7.005h-12.1v2.627h11.82v7.005h-11.82v2.905h12.1v7.005Zm26.013.478c-4.14 0-7.616-1.247-10.428-3.741-2.786-2.521-4.18-5.851-4.18-9.99 0-4.14 1.394-7.456 4.18-9.95 2.812-2.521 6.288-3.782 10.428-3.782 2.918 0 5.346.664 7.283 1.99 1.964 1.327 3.423 2.972 4.378 4.936l-6.766 3.462c-.424-.902-1.075-1.671-1.95-2.308-.849-.663-1.831-.995-2.945-.995-1.911 0-3.463.637-4.657 1.91-1.194 1.274-1.791 2.853-1.791 4.737 0 1.883.597 3.462 1.791 4.736 1.194 1.274 2.746 1.91 4.657 1.91.743 0 1.512-.119 2.308-.358.796-.239 1.406-.517 1.831-.836v-.955h-4.935v-7.005h12.935v10.866c-3.237 3.582-7.284 5.373-12.139 5.373Zm41.704-.478h-9.115l-.955-3.104h-9.552l-.955 3.104h-9.115l9.791-26.547h10.11l9.791 26.547Zm-12.219-10.11-2.627-8.556-2.627 8.557h5.254Zm36.974 10.11h-9.155l-3.661-8.358h-2.906v8.358h-8.04V51.23h14.17c2.998 0 5.333.876 7.005 2.627 1.698 1.725 2.547 3.887 2.547 6.487 0 2.07-.478 3.768-1.433 5.095-.929 1.327-2.043 2.309-3.343 2.945l4.816 9.393Zm-10.826-15.363c.743 0 1.366-.172 1.87-.517.504-.372.757-.902.757-1.592 0-.664-.253-1.168-.757-1.513-.504-.371-1.127-.557-1.87-.557h-4.896v4.18h4.896Zm30.278 15.363h-16.677V51.23h16.119c2.548 0 4.498.69 5.851 2.07 1.353 1.38 2.03 2.945 2.03 4.696 0 1.619-.424 2.972-1.274 4.06a5.607 5.607 0 0 1-3.263 2.03c1.459.212 2.666.928 3.622 2.149.955 1.194 1.432 2.64 1.432 4.338 0 1.99-.676 3.689-2.029 5.095-1.354 1.406-3.291 2.11-5.811 2.11Zm-2.428-16.756c.424 0 .796-.146 1.114-.438a1.57 1.57 0 0 0 .478-1.154c0-.451-.159-.81-.478-1.075a1.597 1.597 0 0 0-1.114-.437h-6.209v3.104h6.209Zm.239 10.07c.583 0 1.034-.146 1.353-.438.345-.318.517-.73.517-1.234 0-.477-.172-.876-.517-1.194-.345-.345-.796-.517-1.353-.517h-6.448v3.383h6.448Zm39.652 6.686h-9.114l-.956-3.104h-9.552l-.955 3.104h-9.115l9.792-26.547h10.109l9.791 26.547Zm-12.219-10.11-2.627-8.556-2.627 8.557h5.254Zm25.182 10.588c-4.14 0-7.616-1.247-10.428-3.741-2.786-2.521-4.179-5.851-4.179-9.99 0-4.14 1.393-7.456 4.179-9.95 2.812-2.521 6.288-3.782 10.428-3.782 2.918 0 5.346.664 7.283 1.99 1.964 1.327 3.423 2.972 4.378 4.936l-6.766 3.462c-.424-.902-1.074-1.671-1.95-2.308-.849-.663-1.831-.995-2.945-.995-1.911 0-3.463.637-4.657 1.91-1.194 1.274-1.791 2.853-1.791 4.737 0 1.883.597 3.462 1.791 4.736 1.194 1.274 2.746 1.91 4.657 1.91.743 0 1.512-.119 2.308-.358.796-.239 1.406-.517 1.831-.836v-.955h-4.935v-7.005h12.935v10.866c-3.237 3.582-7.284 5.373-12.139 5.373Zm35.406-.478h-20.139V51.23h20.139v7.005h-12.099v2.627h11.821v7.005h-11.821v2.905h12.099v7.005Z" fill="#E5E5E5"/></svg>